<svg width="22" height="23" viewBox="0 0 22 23" fill="none" xmlns="http://www.w3.org/2000/svg">
<path d="M2.61255 11.5008H19.3875M2.61255 11.5008C2.61255 16.1331 6.36776 19.8883 11 19.8883M2.61255 11.5008C2.61255 6.86849 6.36776 3.11328 11 3.11328M19.3875 11.5008C19.3875 16.1331 15.6323 19.8883 11 19.8883M19.3875 11.5008C19.3875 6.86849 15.6323 3.11328 11 3.11328M11 3.11328C13.098 5.41007 14.2903 8.39072 14.355 11.5008C14.2903 14.6108 13.098 17.5915 11 19.8883M11 3.11328C8.9021 5.41007 7.70984 8.39072 7.64505 11.5008C7.70984 14.6108 8.9021 17.5915 11 19.8883" stroke="white" stroke-width="2" stroke-linecap="round" stroke-linejoin="round"/>
</svg>
