<svg width="20" height="21" viewBox="0 0 20 21" fill="none" xmlns="http://www.w3.org/2000/svg">
<path d="M13.1258 5.46815C10.7582 6.17654 8.6117 7.33142 6.87417 9.11648M13.1257 15.5331C10.758 14.8248 8.61156 13.6699 6.87402 11.8848M18.25 4.08398C18.25 5.60277 17.0188 6.83398 15.5 6.83398C13.9812 6.83398 12.75 5.60277 12.75 4.08398C12.75 2.5652 13.9812 1.33398 15.5 1.33398C17.0188 1.33398 18.25 2.5652 18.25 4.08398ZM7.25 10.5007C7.25 12.0194 6.01878 13.2507 4.5 13.2507C2.98122 13.2507 1.75 12.0194 1.75 10.5007C1.75 8.98187 2.98122 7.75065 4.5 7.75065C6.01878 7.75065 7.25 8.98187 7.25 10.5007ZM18.25 16.9173C18.25 18.4361 17.0188 19.6673 15.5 19.6673C13.9812 19.6673 12.75 18.4361 12.75 16.9173C12.75 15.3985 13.9812 14.1673 15.5 14.1673C17.0188 14.1673 18.25 15.3985 18.25 16.9173Z" stroke="white" stroke-width="2" stroke-linecap="round" stroke-linejoin="round"/>
</svg>
