<svg width="7" height="7" viewBox="0 0 7 7" fill="none" xmlns="http://www.w3.org/2000/svg">
<path d="M3.98987 0C3.98987 0 4.2778 1.45771 4.90909 2.08475C5.54037 2.71179 7 2.98987 7 2.98987C7 2.98987 5.54229 3.2778 4.91525 3.90909C4.28821 4.54037 4.01013 6 4.01013 6C4.01013 6 3.7222 4.54229 3.09091 3.91525C2.45963 3.28821 1 3.01013 1 3.01013C1 3.01013 2.45771 2.7222 3.08475 2.09091C3.71179 1.45963 3.98987 0 3.98987 0Z" fill="#FFC007"/>
<path d="M1.49493 4C1.49493 4 1.6389 4.72886 1.95454 5.04238C2.27019 5.35589 3 5.49493 3 5.49493C3 5.49493 2.27114 5.6389 1.95762 5.95454C1.64411 6.27019 1.50507 7 1.50507 7C1.50507 7 1.3611 6.27114 1.04546 5.95762C0.729813 5.64411 0 5.50507 0 5.50507C0 5.50507 0.728857 5.3611 1.04238 5.04546C1.35589 4.72981 1.49493 4 1.49493 4Z" fill="#FFC007"/>
<path d="M0.498311 3C0.498311 3 0.5463 3.24295 0.651514 3.34746C0.756729 3.45196 1 3.49831 1 3.49831C1 3.49831 0.757048 3.5463 0.652542 3.65151C0.548035 3.75673 0.501689 4 0.501689 4C0.501689 4 0.4537 3.75705 0.348486 3.65254C0.243271 3.54804 0 3.50169 0 3.50169C0 3.50169 0.242952 3.4537 0.347458 3.34849C0.451965 3.24327 0.498311 3 0.498311 3Z" fill="#FFC007"/>
</svg>
