<svg viewBox="0 0 187 174" fill="none" xmlns="http://www.w3.org/2000/svg">
<path fill-rule="evenodd" clip-rule="evenodd" d="M62.5837 174H1.11965V167.265C1.11965 164.165 3.62651 161.652 6.71865 161.652H7.8383V154.916C7.8383 151.816 10.3449 149.303 13.437 149.303V49.3935H7.27847L0 24.6966H32.4731V0H154.527V24.6966H187L179.722 49.3935H173.563V149.303C176.655 149.303 179.162 151.816 179.162 154.916V161.652H180.281C183.373 161.652 185.88 164.165 185.88 167.265V174H124.485V167.265C124.485 164.165 126.992 161.652 130.084 161.652H131.204V154.916C131.204 151.881 133.608 149.408 136.611 149.307V94.2968C134.63 72.2687 115.988 55.0063 93.5 55.0063C71.0118 55.0063 52.3695 72.2687 50.3892 94.2968V149.305C53.4244 149.37 55.865 151.857 55.865 154.916V158.284V161.652H56.9847C60.0768 161.652 62.5837 164.165 62.5837 167.265V174Z" fill="#fff"/>
</svg>
