<svg width="24" height="25" viewBox="0 0 24 25" fill="none" xmlns="http://www.w3.org/2000/svg">
<mask id="mask0_40006004_3468" style="mask-type:luminance" maskUnits="userSpaceOnUse" x="0" y="0" width="24" height="25">
<path d="M24 0.5H0V24.5H24V0.5Z" fill="white"/>
</mask>
<g mask="url(#mask0_40006004_3468)">
<path d="M18.0579 24.4999H5.94205C2.66561 24.4999 0 21.8345 0 18.5579V6.44214C0 3.16562 2.66561 0.5 5.94205 0.5H18.0579C21.3344 0.5 24 3.16562 24 6.44214V18.5579C24 21.8345 21.3344 24.4999 18.0579 24.4999Z" fill="white"/>
<path d="M15.7489 8.09766L14.5655 12.542L13.3783 8.09766H10.6461L9.44744 12.5747L8.25275 8.09766H5.14087L8.03251 17.9241H10.7172L12.001 13.3611L13.2847 17.9241H15.9752L18.8604 8.09766H15.7489Z" fill="#FA5A01"/>
</g>
</svg>
