<svg width="20" height="21" viewBox="0 0 20 21" fill="none" xmlns="http://www.w3.org/2000/svg">
<path id="vector" d="M17.7776 1.16669L11.3303 8.53511M1.4443 19.8334L8.3215 11.9737M11.3303 8.53511L6.85491 2.21695C6.58251 1.83239 6.44631 1.64011 6.27028 1.50118C6.11441 1.37816 5.93642 1.28611 5.74593 1.23003C5.53081 1.16669 5.29518 1.16669 4.82392 1.16669H3.07301C2.29491 1.16669 1.90585 1.16669 1.6961 1.32818C1.51346 1.4688 1.4026 1.68318 1.39342 1.91349C1.38288 2.17801 1.60776 2.49549 2.05752 3.13044L8.3215 11.9737M11.3303 8.53511L17.9422 17.8696C18.392 18.5046 18.6168 18.822 18.6063 19.0865C18.5971 19.3169 18.4863 19.5312 18.3036 19.6719C18.0939 19.8334 17.7048 19.8334 16.9267 19.8334H15.1758C14.7045 19.8334 14.4689 19.8334 14.2538 19.77C14.0633 19.7139 13.8853 19.6219 13.7294 19.4989C13.5534 19.3599 13.4172 19.1677 13.1448 18.7831L8.3215 11.9737" stroke="#fff" stroke-width="2" stroke-linecap="round" stroke-linejoin="round"/>
</svg>
