<svg width="1512" height="997" viewBox="0 0 1512 997" fill="none" xmlns="http://www.w3.org/2000/svg">
<path d="M778.706 1032.58L761.725 1033.61L752.572 1034.16L771.423 668.558L774.305 612.408L778.706 1032.58Z" fill="#FE8432"/>
<path d="M653.257 669.468L505.959 1049.43L477.216 1051.21L653.257 669.468Z" fill="#FE8432"/>
<path d="M50.5104 573.578L-344.882 697.226L-352.944 672.038L50.5104 573.578Z" fill="#FE8432"/>
<path d="M43.7725 144.309L-308.583 47.7467L-274.504 34.856H-274.465L43.7725 144.309Z" fill="#FE8432"/>
<path d="M548.256 100.536L365.71 -99.7055L292.84 -179.66L295.177 -180.53L316.247 -188.478L548.256 100.536Z" fill="#FE8432"/>
<path d="M593.629 58.5418L511.412 -68.8234L411.045 -224.303L416.225 -226.28L430.908 -231.816L593.629 58.5418Z" fill="#FE8432"/>
<path d="M1464.88 -116.234L1223.21 49.9613L1445.56 -124.538L1464.88 -116.234Z" fill="#FE8432"/>
<path d="M1629.31 -45.6515L1363.46 79.697L1607.66 -54.9834L1629.31 -45.6515Z" fill="#FE8432"/>
<path d="M1924.73 618.695L1914.91 644.002L1509.51 540.204L1924.73 618.695Z" fill="#FE8432"/>
<path d="M1888.47 712.015L1879 736.373L1493.27 600.506L1888.47 712.015Z" fill="#FE8432"/>
<path d="M1454.87 990.747L1425.97 992.526L1196.26 765.238L1454.87 990.747Z" fill="#FE8432"/>
<path d="M1354.31 996.955L1332.69 998.3L1162.61 799.245L1354.31 996.955Z" fill="#FE8432"/>
<path d="M444.929 840.092L297.28 1062.36H297.241L275.314 1063.7L444.929 840.092Z" fill="#FE8432"/>
<path d="M50.5105 655.588L-308.738 809.961L-316.333 786.275L50.5105 655.588Z" fill="#FE8432"/>
<path d="M296.111 816.959L31.1926 1078.81H31.1537L-6.81979 1081.14L-7.20929 1081.18L4.31911 1071.14L296.111 816.959Z" fill="#FE8432"/>
<path d="M173.506 135.847L-196.454 5.35756L-168.022 -5.39789L-162.764 -7.375L-0.666046 61.6655L173.506 135.847Z" fill="#FE8432"/>
<path d="M1376.74 -154.076L1391.5 -147.749L1211.21 0.0985413L1376.74 -154.076Z" fill="#FE8432"/>
<path d="M1862.26 779.513L1852.64 804.306L1852.56 804.504L1840.41 799.403L1463.9 641.63L1862.26 779.513Z" fill="#FE8432"/>
<path d="M1141.81 1010.12L1119.53 1011.51H1119.49L1115.09 1011.78L996.46 781.016L940.454 672.077L1141.81 1010.12Z" fill="#FE8432"/>
<path d="M73.5672 836.256L-231.272 1051.92L-238.672 1028.75L73.5672 836.256Z" fill="#FE8432"/>
<path d="M551.41 765.238L395.271 1056.27L370.033 1057.85L551.41 765.238Z" fill="#FE8432"/>
</svg>
